<svg xmlns="http://www.w3.org/2000/svg" viewBox="0 0 60.47 52.75"><defs><style>.cls-1{fill:#da1f33;}.cls-1,.cls-2{fill-rule:evenodd;}.cls-2{fill:#f47920;}</style></defs><path class="cls-1" d="M306,384.31a11.47,11.47,0,1,1-11.49,11.45A11.48,11.48,0,0,1,306,384.31Z" transform="translate(-275.72 -369.46)"/><path class="cls-2" d="M306,422.21a26.34,26.34,0,0,0,23.8-37.83H313.09a13.48,13.48,0,0,1-7.14,25H275.72v12.83Zm0-52.75h0a26.44,26.44,0,0,0-26.41,26.35,26.09,26.09,0,0,0,2.63,11.48h16.64a13.48,13.48,0,0,1,7.14-25h30.22V369.46Z" transform="translate(-275.72 -369.46)"/></svg>