<!-- Generator: Adobe Illustrator 25.2.1, SVG Export Plug-In  -->
<svg version="1.1" xmlns="http://www.w3.org/2000/svg" xmlns:xlink="http://www.w3.org/1999/xlink" x="0px" y="0px" width="32px"
	 height="32px" viewBox="0 0 32 32" style="overflow:visible;enable-background:new 0 0 32 32;" xml:space="preserve">
<defs>
</defs>
<g>
	<path d="M28,28h-8v2h10V20h-2V28z M20,2v2h8v8h2V2H20z M2,2v10h2V4h8V2H2z M4,28v-8H2v10h10v-2H4z"/>
</g>
<rect y="2" width="2" height="10"/>
<rect x="5" y="-5" transform="matrix(-1.836970e-16 1 -1 -1.836970e-16 7 -5)" width="2" height="12"/>
<rect x="25" y="-5" transform="matrix(-1.836970e-16 1 -1 -1.836970e-16 27 -25)" width="2" height="12"/>
<rect x="5" y="25" transform="matrix(-1.836970e-16 1 -1 -1.836970e-16 37 25)" width="2" height="12"/>
<rect x="25" y="25" transform="matrix(-1.836970e-16 1 -1 -1.836970e-16 57 5)" width="2" height="12"/>
<rect y="20" width="2" height="10"/>
<rect x="30" y="2" width="2" height="10"/>
<rect x="30" y="20" width="2" height="10"/>
</svg>
