<svg xmlns="http://www.w3.org/2000/svg" viewBox="0 0 50 37"><defs><style>.cls-1{fill:#4d4d4e;}.cls-2{fill:#333;}</style></defs><title>mitibig</title><g id="Layer_2" data-name="Layer 2"><g id="Layer_1-2" data-name="Layer 1"><path class="cls-1" d="M44.6,23H33.4A5.38,5.38,0,0,1,28,17.6v-.2A5.38,5.38,0,0,1,33.4,12H44.6A5.38,5.38,0,0,1,50,17.4v.2A5.38,5.38,0,0,1,44.6,23Z"/><path class="cls-2" d="M27.1,7,24,4.3v-1A1.35,1.35,0,0,0,22.6,2H11V0H0V37H11V34H22a6.24,6.24,0,0,0,2-1.5v.2L27.1,30h4.7A2.22,2.22,0,0,0,34,27.8V9.2A2.22,2.22,0,0,0,31.8,7Z"/></g></g></svg>